<svg width="1264" height="9" viewBox="0 0 1264 9" fill="none" xmlns="http://www.w3.org/2000/svg">
<mask maskUnits="userSpaceOnUse" x="0" y="0" width="0" height="0" fill="black">
<rect fill="white" width="0" height="0"/>
</mask>
<path d="M0.146447 4.14645C-0.0488155 4.34171 -0.0488155 4.65829 0.146447 4.85355L3.32843 8.03553C3.52369 8.2308 3.84027 8.2308 4.03553 8.03553C4.2308 7.84027 4.2308 7.52369 4.03553 7.32843L1.20711 4.5L4.03553 1.67157C4.2308 1.47631 4.2308 1.15973 4.03553 0.964466C3.84027 0.769204 3.52369 0.769204 3.32843 0.964466L0.146447 4.14645ZM1263.85 4.85355C1264.05 4.65829 1264.05 4.34171 1263.85 4.14645L1260.67 0.964466C1260.48 0.769204 1260.16 0.769204 1259.96 0.964466C1259.77 1.15973 1259.77 1.47631 1259.96 1.67157L1262.79 4.5L1259.96 7.32843C1259.77 7.52369 1259.77 7.84027 1259.96 8.03553C1260.16 8.2308 1260.48 8.2308 1260.67 8.03553L1263.85 4.85355ZM0.5 5H1V4H0.5V5ZM3 5H4V4H3V5ZM6 5H7V4H6V5ZM9 5H10V4H9V5ZM12 5H13V4H12V5ZM15 5H16V4H15V5ZM18 5H19V4H18V5ZM21 5H22V4H21V5ZM24 5H25V4H24V5ZM27 5H28V4H27V5ZM30 5H31V4H30V5ZM33 5H34V4H33V5ZM36 5H37V4H36V5ZM39 5H40V4H39V5ZM42 5H43V4H42V5ZM45 5H46V4H45V5ZM48 5H49V4H48V5ZM51 5H52V4H51V5ZM54 5H55V4H54V5ZM57 5H58V4H57V5ZM60 5H61V4H60V5ZM63 5H64V4H63V5ZM66 5H67V4H66V5ZM69 5H70V4H69V5ZM72 5H73V4H72V5ZM75 5H76V4H75V5ZM78 5H79V4H78V5ZM81 5H82V4H81V5ZM84 5H85V4H84V5ZM87 5H88V4H87V5ZM90 5H91V4H90V5ZM93 5H94V4H93V5ZM96 5H97V4H96V5ZM99 5H100V4H99V5ZM102 5H103V4H102V5ZM105 5H106V4H105V5ZM108 5H109V4H108V5ZM111 5H112V4H111V5ZM114 5H115V4H114V5ZM117 5H118V4H117V5ZM120 5H121V4H120V5ZM123 5H124V4H123V5ZM126 5H127V4H126V5ZM129 5H130V4H129V5ZM132 5H133V4H132V5ZM135 5H136V4H135V5ZM138 5H139V4H138V5ZM141 5H142V4H141V5ZM144 5H145V4H144V5ZM147 5H148V4H147V5ZM150 5H151V4H150V5ZM153 5H154V4H153V5ZM156 5H157V4H156V5ZM159 5H160V4H159V5ZM162 5H163V4H162V5ZM165 5H166V4H165V5ZM168 5H169V4H168V5ZM171 5H172V4H171V5ZM174 5H175V4H174V5ZM177 5H178V4H177V5ZM180 5H181V4H180V5ZM183 5H184V4H183V5ZM186 5H187V4H186V5ZM189 5H190V4H189V5ZM192 5H193V4H192V5ZM195 5H196V4H195V5ZM198 5H199V4H198V5ZM201 5H202V4H201V5ZM204 5H205V4H204V5ZM207 5H208V4H207V5ZM210 5H211V4H210V5ZM213 5H214V4H213V5ZM216 5H217V4H216V5ZM219 5H220V4H219V5ZM222 5H223V4H222V5ZM225 5H226V4H225V5ZM228 5H229V4H228V5ZM231 5H232V4H231V5ZM234 5H235V4H234V5ZM237 5H238V4H237V5ZM240 5H241V4H240V5ZM243 5H244V4H243V5ZM246 5H247V4H246V5ZM249 5H250V4H249V5ZM252 5H253V4H252V5ZM255 5H256V4H255V5ZM258 5H259V4H258V5ZM261 5H262V4H261V5ZM264 5H265V4H264V5ZM267 5H268V4H267V5ZM270 5H271V4H270V5ZM273 5H274V4H273V5ZM276 5H277V4H276V5ZM279 5H280V4H279V5ZM282 5H283V4H282V5ZM285 5H286V4H285V5ZM288 5H289V4H288V5ZM291 5H292V4H291V5ZM294 5H295V4H294V5ZM297 5H298V4H297V5ZM300 5H301V4H300V5ZM303 5H304V4H303V5ZM306 5H307V4H306V5ZM309 5H310V4H309V5ZM312 5H313V4H312V5ZM315 5H316V4H315V5ZM318 5H319V4H318V5ZM321 5H322V4H321V5ZM324 5H325V4H324V5ZM327 5H328V4H327V5ZM330 5H331V4H330V5ZM333 5H334V4H333V5ZM336 5H337V4H336V5ZM339 5H340V4H339V5ZM342 5H343V4H342V5ZM345 5H346V4H345V5ZM348 5H349V4H348V5ZM351 5H352V4H351V5ZM354 5H355V4H354V5ZM357 5H358V4H357V5ZM360 5H361V4H360V5ZM363 5H364V4H363V5ZM366 5H367V4H366V5ZM369 5H370V4H369V5ZM372 5H373V4H372V5ZM375 5H376V4H375V5ZM378 5H379V4H378V5ZM381 5H382V4H381V5ZM384 5H385V4H384V5ZM387 5H388V4H387V5ZM390 5H391V4H390V5ZM393 5H394V4H393V5ZM396 5H397V4H396V5ZM399 5H400V4H399V5ZM402 5H403V4H402V5ZM405 5H406V4H405V5ZM408 5H409V4H408V5ZM411 5H412V4H411V5ZM414 5H415V4H414V5ZM417 5H418V4H417V5ZM420 5H421V4H420V5ZM423 5H424V4H423V5ZM426 5H427V4H426V5ZM429 5H430V4H429V5ZM432 5H433V4H432V5ZM435 5H436V4H435V5ZM438 5H439V4H438V5ZM441 5H442V4H441V5ZM444 5H445V4H444V5ZM447 5H448V4H447V5ZM450 5H451V4H450V5ZM453 5H454V4H453V5ZM456 5H457V4H456V5ZM459 5H460V4H459V5ZM462 5H463V4H462V5ZM465 5H466V4H465V5ZM468 5H469V4H468V5ZM471 5H472V4H471V5ZM474 5H475V4H474V5ZM477 5H478V4H477V5ZM480 5H481V4H480V5ZM483 5H484V4H483V5ZM486 5H487V4H486V5ZM489 5H490V4H489V5ZM492 5H493V4H492V5ZM495 5H496V4H495V5ZM498 5H499V4H498V5ZM501 5H502V4H501V5ZM504 5H505V4H504V5ZM507 5H508V4H507V5ZM510 5H511V4H510V5ZM513 5H514V4H513V5ZM516 5H517V4H516V5ZM519 5H520V4H519V5ZM522 5H523V4H522V5ZM525 5H526V4H525V5ZM528 5H529V4H528V5ZM531 5H532V4H531V5ZM534 5H535V4H534V5ZM537 5H538V4H537V5ZM540 5H541V4H540V5ZM543 5H544V4H543V5ZM546 5H547V4H546V5ZM549 5H550V4H549V5ZM552 5H553V4H552V5ZM555 5H556V4H555V5ZM558 5H559V4H558V5ZM561 5H562V4H561V5ZM564 5H565V4H564V5ZM567 5H568V4H567V5ZM570 5H571V4H570V5ZM573 5H574V4H573V5ZM576 5H577V4H576V5ZM579 5H580V4H579V5ZM582 5H583V4H582V5ZM585 5H586V4H585V5ZM588 5H589V4H588V5ZM591 5H592V4H591V5ZM594 5H595V4H594V5ZM597 5H598V4H597V5ZM600 5H601V4H600V5ZM603 5H604V4H603V5ZM606 5H607V4H606V5ZM609 5H610V4H609V5ZM612 5H613V4H612V5ZM615 5H616V4H615V5ZM618 5H619V4H618V5ZM621 5H622V4H621V5ZM624 5H625V4H624V5ZM627 5H628V4H627V5ZM630 5H631V4H630V5ZM633 5H634V4H633V5ZM636 5H637V4H636V5ZM639 5H640V4H639V5ZM642 5H643V4H642V5ZM645 5H646V4H645V5ZM648 5H649V4H648V5ZM651 5H652V4H651V5ZM654 5H655V4H654V5ZM657 5H658V4H657V5ZM660 5H661V4H660V5ZM663 5H664V4H663V5ZM666 5H667V4H666V5ZM669 5H670V4H669V5ZM672 5H673V4H672V5ZM675 5H676V4H675V5ZM678 5H679V4H678V5ZM681 5H682V4H681V5ZM684 5H685V4H684V5ZM687 5H688V4H687V5ZM690 5H691V4H690V5ZM693 5H694V4H693V5ZM696 5H697V4H696V5ZM699 5H700V4H699V5ZM702 5H703V4H702V5ZM705 5H706V4H705V5ZM708 5H709V4H708V5ZM711 5H712V4H711V5ZM714 5H715V4H714V5ZM717 5H718V4H717V5ZM720 5H721V4H720V5ZM723 5H724V4H723V5ZM726 5H727V4H726V5ZM729 5H730V4H729V5ZM732 5H733V4H732V5ZM735 5H736V4H735V5ZM738 5H739V4H738V5ZM741 5H742V4H741V5ZM744 5H745V4H744V5ZM747 5H748V4H747V5ZM750 5H751V4H750V5ZM753 5H754V4H753V5ZM756 5H757V4H756V5ZM759 5H760V4H759V5ZM762 5H763V4H762V5ZM765 5H766V4H765V5ZM768 5H769V4H768V5ZM771 5H772V4H771V5ZM774 5H775V4H774V5ZM777 5H778V4H777V5ZM780 5H781V4H780V5ZM783 5H784V4H783V5ZM786 5H787V4H786V5ZM789 5H790V4H789V5ZM792 5H793V4H792V5ZM795 5H796V4H795V5ZM798 5H799V4H798V5ZM801 5H802V4H801V5ZM804 5H805V4H804V5ZM807 5H808V4H807V5ZM810 5H811V4H810V5ZM813 5H814V4H813V5ZM816 5H817V4H816V5ZM819 5H820V4H819V5ZM822 5H823V4H822V5ZM825 5H826V4H825V5ZM828 5H829V4H828V5ZM831 5H832V4H831V5ZM834 5H835V4H834V5ZM837 5H838V4H837V5ZM840 5H841V4H840V5ZM843 5H844V4H843V5ZM846 5H847V4H846V5ZM849 5H850V4H849V5ZM852 5H853V4H852V5ZM855 5H856V4H855V5ZM858 5H859V4H858V5ZM861 5H862V4H861V5ZM864 5H865V4H864V5ZM867 5H868V4H867V5ZM870 5H871V4H870V5ZM873 5H874V4H873V5ZM876 5H877V4H876V5ZM879 5H880V4H879V5ZM882 5H883V4H882V5ZM885 5H886V4H885V5ZM888 5H889V4H888V5ZM891 5H892V4H891V5ZM894 5H895V4H894V5ZM897 5H898V4H897V5ZM900 5H901V4H900V5ZM903 5H904V4H903V5ZM906 5H907V4H906V5ZM909 5H910V4H909V5ZM912 5H913V4H912V5ZM915 5H916V4H915V5ZM918 5H919V4H918V5ZM921 5H922V4H921V5ZM924 5H925V4H924V5ZM927 5H928V4H927V5ZM930 5H931V4H930V5ZM933 5H934V4H933V5ZM936 5H937V4H936V5ZM939 5H940V4H939V5ZM942 5H943V4H942V5ZM945 5H946V4H945V5ZM948 5H949V4H948V5ZM951 5H952V4H951V5ZM954 5H955V4H954V5ZM957 5H958V4H957V5ZM960 5H961V4H960V5ZM963 5H964V4H963V5ZM966 5H967V4H966V5ZM969 5H970V4H969V5ZM972 5H973V4H972V5ZM975 5H976V4H975V5ZM978 5H979V4H978V5ZM981 5H982V4H981V5ZM984 5H985V4H984V5ZM987 5H988V4H987V5ZM990 5H991V4H990V5ZM993 5H994V4H993V5ZM996 5H997V4H996V5ZM999 5H1000V4H999V5ZM1002 5H1003V4H1002V5ZM1005 5H1006V4H1005V5ZM1008 5H1009V4H1008V5ZM1011 5H1012V4H1011V5ZM1014 5H1015V4H1014V5ZM1017 5H1018V4H1017V5ZM1020 5H1021V4H1020V5ZM1023 5H1024V4H1023V5ZM1026 5H1027V4H1026V5ZM1029 5H1030V4H1029V5ZM1032 5H1033V4H1032V5ZM1035 5H1036V4H1035V5ZM1038 5H1039V4H1038V5ZM1041 5H1042V4H1041V5ZM1044 5H1045V4H1044V5ZM1047 5H1048V4H1047V5ZM1050 5H1051V4H1050V5ZM1053 5H1054V4H1053V5ZM1056 5H1057V4H1056V5ZM1059 5H1060V4H1059V5ZM1062 5H1063V4H1062V5ZM1065 5H1066V4H1065V5ZM1068 5H1069V4H1068V5ZM1071 5H1072V4H1071V5ZM1074 5H1075V4H1074V5ZM1077 5H1078V4H1077V5ZM1080 5H1081V4H1080V5ZM1083 5H1084V4H1083V5ZM1086 5H1087V4H1086V5ZM1089 5H1090V4H1089V5ZM1092 5H1093V4H1092V5ZM1095 5H1096V4H1095V5ZM1098 5H1099V4H1098V5ZM1101 5H1102V4H1101V5ZM1104 5H1105V4H1104V5ZM1107 5H1108V4H1107V5ZM1110 5H1111V4H1110V5ZM1113 5H1114V4H1113V5ZM1116 5H1117V4H1116V5ZM1119 5H1120V4H1119V5ZM1122 5H1123V4H1122V5ZM1125 5H1126V4H1125V5ZM1128 5H1129V4H1128V5ZM1131 5H1132V4H1131V5ZM1134 5H1135V4H1134V5ZM1137 5H1138V4H1137V5ZM1140 5H1141V4H1140V5ZM1143 5H1144V4H1143V5ZM1146 5H1147V4H1146V5ZM1149 5H1150V4H1149V5ZM1152 5H1153V4H1152V5ZM1155 5H1156V4H1155V5ZM1158 5H1159V4H1158V5ZM1161 5H1162V4H1161V5ZM1164 5H1165V4H1164V5ZM1167 5H1168V4H1167V5ZM1170 5H1171V4H1170V5ZM1173 5H1174V4H1173V5ZM1176 5H1177V4H1176V5ZM1179 5H1180V4H1179V5ZM1182 5H1183V4H1182V5ZM1185 5H1186V4H1185V5ZM1188 5H1189V4H1188V5ZM1191 5H1192V4H1191V5ZM1194 5H1195V4H1194V5ZM1197 5H1198V4H1197V5ZM1200 5H1201V4H1200V5ZM1203 5H1204V4H1203V5ZM1206 5H1207V4H1206V5ZM1209 5H1210V4H1209V5ZM1212 5H1213V4H1212V5ZM1215 5H1216V4H1215V5ZM1218 5H1219V4H1218V5ZM1221 5H1222V4H1221V5ZM1224 5H1225V4H1224V5ZM1227 5H1228V4H1227V5ZM1230 5H1231V4H1230V5ZM1233 5H1234V4H1233V5ZM1236 5H1237V4H1236V5ZM1239 5H1240V4H1239V5ZM1242 5H1243V4H1242V5ZM1245 5H1246V4H1245V5ZM1248 5H1249V4H1248V5ZM1251 5H1252V4H1251V5ZM1254 5H1255V4H1254V5ZM1257 5H1258V4H1257V5ZM1260 5H1261V4H1260V5ZM1263 5H1263.5V4H1263V5Z" fill="black" mask="url(#)"/>
</svg>
