<svg width="70" height="72" viewBox="0 0 70 72" fill="none" xmlns="http://www.w3.org/2000/svg">
<rect width="70" height="72" rx="20" fill="#E5E5E5"/>
<path d="M57.395 37.6743C57.0828 37.5741 56.8419 37.3012 56.75 36.9463C56.2381 34.9579 55.4666 33.0448 54.4559 31.2599C54.2759 30.9417 54.2591 30.5733 54.4128 30.2715C54.9875 29.1395 54.7841 27.7721 53.9066 26.8695L50.5653 23.4328C49.9203 22.7694 49.0025 22.484 48.125 22.6238C48.1241 22.6247 48.125 22.6267 48.125 22.6286C48.125 23.6941 47.2859 24.5572 46.25 24.5572V28.6727C50.255 32.0323 52.8125 37.1478 52.8125 42.8786C52.8125 52.9968 44.8372 61.2 35 61.2C25.1628 61.2 17.1875 52.9968 17.1875 42.8786C17.1875 37.1488 19.745 32.0323 23.75 28.6727V24.5572C22.7141 24.5572 21.875 23.6941 21.875 22.6286C21.875 22.6267 21.8759 22.6247 21.8759 22.6238C20.9975 22.483 20.0797 22.7694 19.4356 23.4328L16.0944 26.8695C15.2169 27.7721 15.0134 29.1395 15.59 30.2754C15.7419 30.5743 15.725 30.9417 15.545 31.2599C14.5344 33.0448 13.7628 34.9579 13.2509 36.9463C13.1591 37.3021 12.9191 37.5741 12.6069 37.6753C11.4209 38.0572 10.625 39.1719 10.625 40.4486V45.3086C10.625 46.5853 11.4209 47.7 12.605 48.0828C12.9172 48.1831 13.1581 48.456 13.25 48.8109C13.7619 50.7992 14.5334 52.7124 15.5441 54.4973C15.7241 54.8145 15.7409 55.1829 15.5872 55.4857C15.0125 56.6177 15.2159 57.9851 16.0934 58.8877L19.4347 62.3244C20.3122 63.2279 21.6416 63.4372 22.7459 62.8432C23.0384 62.6879 23.3947 62.7053 23.7031 62.8894C25.4384 63.9289 27.2984 64.7226 29.2316 65.2491C29.5775 65.3436 29.8419 65.5904 29.9403 65.9115C30.3125 67.1313 31.3962 67.95 32.6375 67.95H37.3625C38.6038 67.95 39.6875 67.1313 40.0597 65.9134C40.1572 65.5923 40.4225 65.3445 40.7675 65.25C42.7006 64.7235 44.5606 63.9299 46.2959 62.8904C46.6053 62.7062 46.9625 62.6889 47.2569 62.8461C48.3575 63.4381 49.6859 63.2279 50.5644 62.3253L53.9056 58.8886C54.7831 57.9861 54.9866 56.6187 54.41 55.4828C54.2581 55.1838 54.275 54.8155 54.455 54.4982C55.4656 52.7133 56.2372 50.8002 56.7491 48.8118C56.8409 48.456 57.0809 48.1841 57.3931 48.0828C58.5791 47.7 59.375 46.5853 59.375 45.3086V40.4486C59.375 39.1719 58.5791 38.0572 57.395 37.6743Z" fill="#F0BC5E"/>
<path d="M31.25 29.3786C31.7678 29.3786 32.1875 28.9469 32.1875 28.4143C32.1875 27.8817 31.7678 27.45 31.25 27.45C30.7322 27.45 30.3125 27.8817 30.3125 28.4143C30.3125 28.9469 30.7322 29.3786 31.25 29.3786Z" fill="black"/>
<path d="M38.75 29.3786C39.2678 29.3786 39.6875 28.9469 39.6875 28.4143C39.6875 27.8817 39.2678 27.45 38.75 27.45C38.2322 27.45 37.8125 27.8817 37.8125 28.4143C37.8125 28.9469 38.2322 29.3786 38.75 29.3786Z" fill="black"/>
<path d="M36.875 34.2H31.25V36.1286H36.875C38.4256 36.1286 39.6875 34.8307 39.6875 33.2357H37.8125C37.8125 33.7671 37.3916 34.2 36.875 34.2Z" fill="black"/>
<path d="M60.3125 13.95H64.0625V10.6647L63.7962 10.3831C62.4397 8.95213 60.5356 8.16431 58.4375 8.16431C56.2222 8.16431 54.1325 9.16716 52.7038 10.9154C52.13 11.6184 51.3266 12.0214 50.4988 12.0214H43.7741C41.555 9.64931 38.4453 8.16431 35 8.16431C31.5547 8.16431 28.445 9.64931 26.2259 12.0214H19.5013C18.6734 12.0214 17.87 11.6184 17.2953 10.9154C15.8675 9.16716 13.7778 8.16431 11.5625 8.16431C9.46344 8.16431 7.56031 8.95213 6.20375 10.3841L5.9375 10.6647V13.95H10.7684L11.3938 17.8072H5.9375V21.0925L6.20375 21.3741C7.56031 22.8051 9.46344 23.5929 11.5625 23.5929C13.7778 23.5929 15.8675 22.59 17.2963 20.8418C17.87 20.1388 18.6734 19.7357 19.5013 19.7357H22.8594C22.8556 19.7907 22.8547 19.8457 22.8509 19.9006C21.7428 20.2883 20.9375 21.3586 20.9375 22.6286C20.9375 23.8841 21.7241 24.9448 22.8125 25.344V28.233C18.6397 31.9079 16.25 37.2153 16.25 42.8796C16.25 53.5137 24.6613 62.1653 35 62.1653C45.3387 62.1653 53.75 53.5137 53.75 42.8796C53.75 37.2153 51.3603 31.9079 47.1875 28.233V25.345C48.2759 24.9458 49.0625 23.8851 49.0625 22.6296C49.0625 21.3596 48.2572 20.2892 47.1481 19.9016C47.1444 19.8466 47.1444 19.7907 47.1397 19.7367H50.4978C51.3256 19.7367 52.1291 20.1398 52.7038 20.8427C54.1325 22.59 56.2222 23.5929 58.4375 23.5929C60.5356 23.5929 62.4397 22.8051 63.7962 21.3731L64.0625 21.0925V17.8072H60.3125C59.2784 17.8072 58.4375 16.9422 58.4375 15.8786C58.4375 14.815 59.2784 13.95 60.3125 13.95ZM37.8125 10.5037C41.8438 11.682 44.8756 15.3183 45.2647 19.7357H41.5625V15.8786H39.6875V19.7357H37.8125V10.5037ZM34.0625 10.1421C34.3719 10.1131 34.6831 10.0929 35 10.0929C35.3169 10.0929 35.6281 10.1131 35.9375 10.1421V19.7357H34.0625V10.1421ZM32.1875 10.5037V19.7357H30.3125V15.8786H28.4375V19.7357H24.7353C25.1244 15.3183 28.1562 11.683 32.1875 10.5037ZM19.5013 17.8072C18.1184 17.8072 16.7909 18.4609 15.86 19.6007C14.7894 20.9122 13.2228 21.6643 11.5625 21.6643C10.1094 21.6643 8.79219 21.1783 7.8125 20.2873V19.7357H13.6072L12.3566 12.0214H7.8125V11.4699C8.79219 10.5789 10.1094 10.0929 11.5625 10.0929C13.2228 10.0929 14.7894 10.845 15.86 12.1564C16.7919 13.2962 18.1194 13.95 19.5013 13.95H24.7466C24.0172 15.1187 23.4744 16.4176 23.1528 17.8072H19.5013ZM22.8603 30.8298C23.0966 32.7247 24.6566 34.2 26.5625 34.2C26.5625 36.8634 28.3241 39.1063 30.71 39.7765L30.4475 41.1274C25.7694 42.4292 21.845 45.8168 19.7581 50.2766C18.7222 48.0288 18.125 45.5275 18.125 42.8786C18.125 38.3378 19.8331 34.0515 22.8603 30.8298ZM26.5625 28.4143V32.2715C25.5284 32.2715 24.6875 31.4065 24.6875 30.3429C24.6875 29.2793 25.5284 28.4143 26.5625 28.4143ZM24.6875 27.0219V25.5215H26.5625V26.4857C25.8762 26.4857 25.2416 26.6902 24.6875 27.0219ZM29.4697 46.7357H25.625V45.7541C26.7566 44.8322 28.0203 44.082 29.375 43.5295V45.7715C29.375 46.1012 29.4078 46.4243 29.4697 46.7357ZM30.3369 48.6643C31.1937 49.8282 32.5381 50.5929 34.0625 50.5929H25.625V48.6643H30.3369ZM34.0625 52.5215V54.45H25.625V52.5215H34.0625ZM34.0625 56.3786V60.1866C30.9538 60.0091 28.0634 58.9831 25.625 57.3005V56.3786H34.0625ZM44.375 56.3786V57.3005C41.9366 58.9831 39.0462 60.0091 35.9375 60.1866V56.3786H44.375ZM35.9375 54.45V52.5215H44.375V54.45H35.9375ZM44.375 46.7357H40.5303C40.5922 46.4243 40.625 46.1012 40.625 45.7715V43.5295C41.9797 44.082 43.2434 44.8322 44.375 45.7541V46.7357ZM44.375 48.6643V50.5929H35.9375C37.4628 50.5929 38.8072 49.8282 39.6631 48.6643H44.375ZM38.75 45.7715C38.75 47.3664 37.4881 48.6643 35.9375 48.6643H34.0625C32.5119 48.6643 31.25 47.3664 31.25 45.7715V43.4572L35 48.2786L38.75 43.4572V45.7715ZM32.255 41.6626L32.5812 39.9857H37.4197L37.7459 41.6626L35 45.1919L32.255 41.6626ZM37.8125 38.0572H32.1875C30.1194 38.0572 28.4375 36.3272 28.4375 34.2V25.5215H41.5625V34.2C41.5625 36.3272 39.8806 38.0572 37.8125 38.0572ZM20.9234 52.4279C21.5694 50.6276 22.5303 48.9845 23.75 47.5785V55.7788C22.6775 54.7885 21.7213 53.669 20.9234 52.4279ZM46.25 55.7788V47.5785C47.4697 48.9845 48.4306 50.6286 49.0766 52.4279C48.2787 53.669 47.3225 54.7885 46.25 55.7788ZM51.875 42.8786C51.875 45.5275 51.2787 48.0288 50.2428 50.2766C48.1559 45.8168 44.2316 42.4292 39.5534 41.1274L39.2909 39.7765C41.6759 39.1063 43.4375 36.8634 43.4375 34.2C45.3434 34.2 46.9034 32.7247 47.1397 30.8298C50.1669 34.0515 51.875 38.3378 51.875 42.8786ZM45.3125 30.3429C45.3125 31.4065 44.4716 32.2715 43.4375 32.2715V28.4143C44.4716 28.4143 45.3125 29.2793 45.3125 30.3429ZM43.4375 26.4857V25.5215H45.3125V27.0219C44.7584 26.6902 44.1237 26.4857 43.4375 26.4857ZM47.1875 22.6286C47.1875 23.1599 46.7666 23.5929 46.25 23.5929H23.75C23.2334 23.5929 22.8125 23.1599 22.8125 22.6286C22.8125 22.0973 23.2334 21.6643 23.75 21.6643H46.25C46.7666 21.6643 47.1875 22.0973 47.1875 22.6286ZM60.3125 19.7357H62.1875V20.2873C61.2078 21.1783 59.8897 21.6643 58.4375 21.6643C56.7772 21.6643 55.2106 20.9122 54.14 19.6007C53.2081 18.4609 51.8806 17.8072 50.4988 17.8072H46.8472C46.5266 16.4176 45.9837 15.1187 45.2534 13.95H50.4988C51.8816 13.95 53.2091 13.2962 54.14 12.1564C55.2106 10.845 56.7772 10.0929 58.4375 10.0929C59.8897 10.0929 61.2078 10.5789 62.1875 11.4699V12.0214H60.3125C58.2444 12.0214 56.5625 13.7514 56.5625 15.8786C56.5625 18.0058 58.2444 19.7357 60.3125 19.7357Z" fill="black"/>
</svg>
