<svg width="35" height="36" viewBox="0 0 35 36" fill="none" xmlns="http://www.w3.org/2000/svg">
<path d="M6.39079 0.824341C2.85057 0.824341 0 3.67491 0 7.21512V29.4335C0 32.9737 2.85057 35.8243 6.39079 35.8243H18.433V22.1415H14.8149V17.2153H18.433V13.0065C18.433 9.6999 20.5708 6.66387 25.4953 6.66387C27.4892 6.66387 28.9636 6.85528 28.9636 6.85528L28.8477 11.4556C28.8477 11.4556 27.344 11.4414 25.7031 11.4414C23.9273 11.4414 23.6425 12.2596 23.6425 13.618V17.2153H28.9888L28.7558 22.1415H23.6425V35.8243H28.6092C32.1494 35.8243 35 32.9738 35 29.4336V7.21515C35 3.67495 32.1494 0.824376 28.6092 0.824376H6.39076L6.39079 0.824341Z" fill="#E5E5E5"/>
</svg>
