<svg width="241" height="75" viewBox="0 0 241 75" fill="none" xmlns="http://www.w3.org/2000/svg">
<path d="M35 24.0176C33.6846 24.7186 32.2935 25.182 30.87 25.3934C32.3718 24.2913 33.4972 22.5575 34.0375 20.5135C32.6262 21.5455 31.0813 22.2726 29.47 22.6633C28.393 21.2285 26.9587 20.2734 25.3922 19.9478C23.8256 19.6223 22.2155 19.9446 20.8141 20.8644C19.4128 21.7841 18.2996 23.2491 17.6492 25.0297C16.9987 26.8104 16.8478 28.8058 17.22 30.7032C14.3665 30.5259 11.5753 29.6132 9.02765 28.0243C6.48002 26.4355 4.23298 24.2061 2.4325 21.4809C1.80099 22.8356 1.46916 24.3697 1.47 25.9308C1.46776 27.3806 1.75738 28.8085 2.31307 30.0874C2.86876 31.3664 3.67328 32.4567 4.655 33.2614C3.51396 33.2232 2.3973 32.8471 1.4 32.165V32.2725C1.40855 34.3037 1.98799 36.269 3.0403 37.8359C4.09261 39.4027 5.5532 40.475 7.175 40.8713C6.5507 41.1047 5.90253 41.2278 5.25 41.2368C4.79831 41.2303 4.34774 41.18 3.9025 41.0863C4.36434 42.8336 5.25809 44.3606 6.45938 45.4549C7.66067 46.5491 9.10976 47.1561 10.605 47.1915C8.0801 49.632 4.9628 50.9639 1.75 50.975C1.16504 50.9774 0.580537 50.9343 0 50.846C3.28025 53.4477 7.10292 54.8288 11.0075 54.823C13.702 54.8574 16.375 54.2319 18.8705 52.983C21.3659 51.7342 23.6338 49.887 25.5416 47.5494C27.4494 45.2119 28.9589 42.4307 29.982 39.3685C31.005 36.3063 31.5211 33.0243 31.5 29.7143V28.575C32.8732 27.317 34.0576 25.7748 35 24.0176Z" fill="#E5E5E5"/>
<path d="M109.391 19.8243C105.851 19.8243 103 22.6749 103 26.2151V48.4335C103 51.9737 105.851 54.8243 109.391 54.8243H121.433V41.1415H117.815V36.2153H121.433V32.0065C121.433 28.6999 123.571 25.6639 128.495 25.6639C130.489 25.6639 131.964 25.8553 131.964 25.8553L131.848 30.4556C131.848 30.4556 130.344 30.4414 128.703 30.4414C126.927 30.4414 126.642 31.2596 126.642 32.618V36.2153H131.989L131.756 41.1415H126.642V54.8243H131.609C135.149 54.8243 138 51.9738 138 48.4336V26.2152C138 22.6749 135.149 19.8244 131.609 19.8244H109.391L109.391 19.8243Z" fill="#E5E5E5"/>
<path d="M232.845 25.8793C232.43 25.8793 232.024 26.0025 231.678 26.2333C231.333 26.464 231.064 26.792 230.905 27.1757C230.746 27.5594 230.704 27.9817 230.785 28.389C230.866 28.7964 231.066 29.1706 231.36 29.4643C231.654 29.758 232.028 29.958 232.435 30.039C232.843 30.12 233.265 30.0784 233.649 29.9195C234.032 29.7605 234.36 29.4914 234.591 29.146C234.822 28.8007 234.945 28.3947 234.945 27.9793C234.945 27.4224 234.724 26.8882 234.33 26.4944C233.936 26.1006 233.402 25.8793 232.845 25.8793ZM240.895 30.1143C240.861 28.6624 240.589 27.2258 240.09 25.8618C239.645 24.6948 238.952 23.6381 238.06 22.7643C237.193 21.8673 236.134 21.1791 234.962 20.7518C233.602 20.2376 232.164 19.9595 230.71 19.9293C228.855 19.8243 228.26 19.8243 223.5 19.8243C218.74 19.8243 218.145 19.8243 216.29 19.9293C214.836 19.9595 213.398 20.2376 212.037 20.7518C210.868 21.1835 209.81 21.8711 208.94 22.7643C208.043 23.6309 207.355 24.6901 206.927 25.8618C206.413 27.2222 206.135 28.6604 206.105 30.1143C206 31.9693 206 32.5643 206 37.3243C206 42.0843 206 42.6793 206.105 44.5343C206.135 45.9883 206.413 47.4265 206.927 48.7868C207.355 49.9586 208.043 51.0178 208.94 51.8843C209.81 52.7776 210.868 53.4652 212.037 53.8968C213.398 54.4111 214.836 54.6892 216.29 54.7193C218.145 54.8243 218.74 54.8243 223.5 54.8243C228.26 54.8243 228.855 54.8243 230.71 54.7193C232.164 54.6892 233.602 54.4111 234.962 53.8968C236.134 53.4695 237.193 52.7813 238.06 51.8843C238.956 51.0139 239.65 49.9562 240.09 48.7868C240.589 47.4229 240.861 45.9863 240.895 44.5343C240.895 42.6793 241 42.0843 241 37.3243C241 32.5643 241 31.9693 240.895 30.1143ZM237.745 44.3243C237.732 45.4352 237.531 46.5358 237.15 47.5793C236.871 48.3409 236.422 49.0291 235.837 49.5918C235.27 50.1702 234.583 50.6181 233.825 50.9043C232.781 51.2854 231.681 51.4866 230.57 51.4993C228.82 51.5868 228.173 51.6043 223.57 51.6043C218.967 51.6043 218.32 51.6043 216.57 51.4993C215.417 51.5209 214.268 51.3433 213.175 50.9743C212.45 50.6735 211.795 50.2267 211.25 49.6618C210.669 49.0996 210.226 48.4109 209.955 47.6493C209.528 46.5909 209.291 45.4652 209.255 44.3243C209.255 42.5743 209.15 41.9268 209.15 37.3243C209.15 32.7218 209.15 32.0743 209.255 30.3243C209.263 29.1887 209.47 28.0632 209.868 26.9993C210.176 26.2607 210.648 25.6022 211.25 25.0743C211.782 24.4726 212.439 23.9948 213.175 23.6743C214.242 23.2894 215.366 23.0882 216.5 23.0793C218.25 23.0793 218.898 22.9743 223.5 22.9743C228.103 22.9743 228.75 22.9743 230.5 23.0793C231.611 23.0921 232.711 23.2933 233.755 23.6743C234.55 23.9695 235.264 24.4493 235.837 25.0743C236.411 25.6119 236.859 26.2691 237.15 26.9993C237.539 28.065 237.74 29.19 237.745 30.3243C237.832 32.0743 237.85 32.7218 237.85 37.3243C237.85 41.9268 237.832 42.5743 237.745 44.3243ZM223.5 28.3468C221.725 28.3503 219.991 28.8798 218.517 29.8683C217.043 30.8569 215.895 32.2602 215.218 33.9009C214.542 35.5416 214.366 37.3462 214.715 39.0865C215.063 40.8268 215.919 42.4248 217.176 43.6786C218.432 44.9323 220.032 45.7856 221.773 46.1306C223.513 46.4756 225.318 46.2968 226.957 45.6168C228.596 44.9368 229.998 43.7861 230.983 42.3102C231.969 40.8342 232.495 39.0992 232.495 37.3243C232.497 36.1433 232.266 34.9734 231.815 33.882C231.363 32.7906 230.7 31.7993 229.865 30.9649C229.029 30.1306 228.036 29.4698 226.944 29.0205C225.851 28.5712 224.681 28.3422 223.5 28.3468ZM223.5 43.1518C222.347 43.1518 221.221 42.8101 220.262 42.1697C219.304 41.5294 218.557 40.6193 218.116 39.5544C217.675 38.4896 217.56 37.3179 217.784 36.1875C218.009 35.057 218.564 34.0187 219.379 33.2037C220.194 32.3887 221.233 31.8337 222.363 31.6088C223.494 31.384 224.665 31.4994 225.73 31.9404C226.795 32.3815 227.705 33.1284 228.345 34.0868C228.986 35.0451 229.327 36.1718 229.327 37.3243C229.327 38.0896 229.177 38.8474 228.884 39.5544C228.591 40.2615 228.162 40.9039 227.621 41.445C227.08 41.9861 226.437 42.4154 225.73 42.7082C225.023 43.0011 224.265 43.1518 223.5 43.1518Z" fill="#E5E5E5"/>
</svg>
