<svg width="35" height="36" viewBox="0 0 35 36" fill="none" xmlns="http://www.w3.org/2000/svg">
<path d="M26.845 6.87934C26.4297 6.87934 26.0236 7.0025 25.6783 7.23325C25.333 7.46401 25.0638 7.79198 24.9049 8.17571C24.7459 8.55943 24.7043 8.98167 24.7854 9.38903C24.8664 9.79639 25.0664 10.1706 25.3601 10.4643C25.6538 10.758 26.028 10.958 26.4353 11.039C26.8427 11.12 27.2649 11.0784 27.6486 10.9195C28.0324 10.7605 28.3603 10.4914 28.5911 10.146C28.8218 9.8007 28.945 9.39468 28.945 8.97934C28.945 8.42239 28.7238 7.88824 28.3299 7.49442C27.9361 7.10059 27.402 6.87934 26.845 6.87934ZM34.895 11.1143C34.861 9.66236 34.589 8.2258 34.09 6.86184C33.645 5.69482 32.9525 4.63808 32.06 3.76434C31.1934 2.86734 30.1342 2.17915 28.9625 1.75184C27.6021 1.23762 26.164 0.959458 24.71 0.929341C22.855 0.824341 22.26 0.824341 17.5 0.824341C12.74 0.824341 12.145 0.824341 10.29 0.929341C8.83602 0.959458 7.39785 1.23762 6.0375 1.75184C4.86793 2.18348 3.80963 2.87107 2.94 3.76434C2.043 4.6309 1.35481 5.69011 0.9275 6.86184C0.413281 8.22219 0.135117 9.66036 0.105 11.1143C-9.77889e-08 12.9693 0 13.5643 0 18.3243C0 23.0843 -9.77889e-08 23.6793 0.105 25.5343C0.135117 26.9883 0.413281 28.4265 0.9275 29.7868C1.35481 30.9586 2.043 32.0178 2.94 32.8843C3.80963 33.7776 4.86793 34.4652 6.0375 34.8968C7.39785 35.4111 8.83602 35.6892 10.29 35.7193C12.145 35.8243 12.74 35.8243 17.5 35.8243C22.26 35.8243 22.855 35.8243 24.71 35.7193C26.164 35.6892 27.6021 35.4111 28.9625 34.8968C30.1342 34.4695 31.1934 33.7813 32.06 32.8843C32.9564 32.0139 33.6496 30.9562 34.09 29.7868C34.589 28.4229 34.861 26.9863 34.895 25.5343C34.895 23.6793 35 23.0843 35 18.3243C35 13.5643 35 12.9693 34.895 11.1143ZM31.745 25.3243C31.7323 26.4352 31.5311 27.5358 31.15 28.5793C30.8706 29.3409 30.4218 30.0291 29.8375 30.5918C29.2699 31.1702 28.5831 31.6181 27.825 31.9043C26.7815 32.2854 25.6809 32.4866 24.57 32.4993C22.82 32.5868 22.1725 32.6043 17.57 32.6043C12.9675 32.6043 12.32 32.6043 10.57 32.4993C9.41656 32.5209 8.26804 32.3433 7.175 31.9743C6.45012 31.6735 5.79487 31.2267 5.25 30.6618C4.66916 30.0996 4.22598 29.4109 3.955 28.6493C3.52775 27.5909 3.29078 26.4652 3.255 25.3243C3.255 23.5743 3.15 22.9268 3.15 18.3243C3.15 13.7218 3.15 13.0743 3.255 11.3243C3.26284 10.1887 3.47016 9.06324 3.8675 7.99934C4.17558 7.26068 4.64846 6.60224 5.25 6.07434C5.78167 5.47264 6.43875 4.99476 7.175 4.67434C8.24171 4.28942 9.366 4.08823 10.5 4.07934C12.25 4.07934 12.8975 3.97434 17.5 3.97434C22.1025 3.97434 22.75 3.97434 24.5 4.07934C25.6108 4.09208 26.7115 4.29327 27.755 4.67434C28.5503 4.96948 29.264 5.44932 29.8375 6.07434C30.411 6.6119 30.8591 7.26912 31.15 7.99934C31.5389 9.06497 31.7403 10.19 31.745 11.3243C31.8325 13.0743 31.85 13.7218 31.85 18.3243C31.85 22.9268 31.8325 23.5743 31.745 25.3243ZM17.5 9.34684C15.7252 9.3503 13.9912 9.87976 12.5171 10.8683C11.0431 11.8569 9.89516 13.2602 9.21836 14.9009C8.54156 16.5416 8.36627 18.3462 8.71464 20.0865C9.06301 21.8268 9.91941 23.4248 11.1756 24.6786C12.4319 25.9323 14.0315 26.7856 15.7725 27.1306C17.5135 27.4756 19.3177 27.2968 20.9571 26.6168C22.5965 25.9368 23.9975 24.7861 24.9832 23.3102C25.9689 21.8342 26.495 20.0992 26.495 18.3243C26.4973 17.1433 26.2661 15.9734 25.8147 14.882C25.3632 13.7906 24.7005 12.7993 23.8645 11.9649C23.0286 11.1306 22.0359 10.4698 20.9436 10.0205C19.8514 9.57116 18.6811 9.34223 17.5 9.34684ZM17.5 24.1518C16.3474 24.1518 15.2207 23.8101 14.2624 23.1697C13.3041 22.5294 12.5572 21.6193 12.1161 20.5544C11.675 19.4896 11.5596 18.3179 11.7845 17.1875C12.0093 16.057 12.5643 15.0187 13.3793 14.2037C14.1943 13.3887 15.2327 12.8337 16.3631 12.6088C17.4935 12.384 18.6653 12.4994 19.7301 12.9404C20.7949 13.3815 21.7051 14.1284 22.3454 15.0868C22.9857 16.0451 23.3275 17.1718 23.3275 18.3243C23.3275 19.0896 23.1768 19.8474 22.8839 20.5544C22.591 21.2615 22.1618 21.9039 21.6207 22.445C21.0795 22.9861 20.4371 23.4154 19.7301 23.7082C19.0231 24.0011 18.2653 24.1518 17.5 24.1518Z" fill="#E5E5E5"/>
</svg>
