<svg width="35" height="36" viewBox="0 0 35 36" fill="none" xmlns="http://www.w3.org/2000/svg">
<path d="M35 5.01758C33.6846 5.71859 32.2935 6.182 30.87 6.39339C32.3718 5.29128 33.4972 3.55745 34.0375 1.51354C32.6262 2.54554 31.0813 3.27265 29.47 3.66326C28.393 2.22848 26.9587 1.27341 25.3922 0.947846C23.8256 0.622282 22.2155 0.944636 20.8141 1.86435C19.4128 2.78407 18.2996 4.24912 17.6492 6.02974C16.9987 7.81036 16.8478 9.80583 17.22 11.7032C14.3665 11.5259 11.5753 10.6132 9.02765 9.02435C6.48002 7.43551 4.23298 5.20609 2.4325 2.48091C1.80099 3.83559 1.46916 5.36975 1.47 6.93082C1.46776 8.38055 1.75738 9.80847 2.31307 11.0874C2.86876 12.3664 3.67328 13.4567 4.655 14.2614C3.51396 14.2232 2.3973 13.8471 1.4 13.165V13.2725C1.40855 15.3037 1.98799 17.269 3.0403 18.8359C4.09261 20.4027 5.5532 21.475 7.175 21.8713C6.5507 22.1047 5.90253 22.2278 5.25 22.2368C4.79831 22.2303 4.34774 22.18 3.9025 22.0863C4.36434 23.8336 5.25809 25.3606 6.45938 26.4549C7.66067 27.5491 9.10976 28.1561 10.605 28.1915C8.0801 30.632 4.9628 31.9639 1.75 31.975C1.16504 31.9774 0.580537 31.9343 0 31.846C3.28025 34.4477 7.10292 35.8288 11.0075 35.823C13.702 35.8574 16.375 35.2319 18.8705 33.983C21.3659 32.7342 23.6338 30.887 25.5416 28.5494C27.4494 26.2119 28.9589 23.4307 29.982 20.3685C31.005 17.3063 31.5211 14.0243 31.5 10.7143V9.57497C32.8732 8.31698 34.0576 6.77481 35 5.01758Z" fill="#E5E5E5"/>
</svg>
